<svg xmlns="http://www.w3.org/2000/svg" width="84.685" height="84.666" viewBox="0 0 84.685 84.666">
  <path id="instagram" d="M42.277,52.451A21.707,21.707,0,1,0,63.984,74.158,21.673,21.673,0,0,0,42.277,52.451Zm0,35.82A14.112,14.112,0,1,1,56.39,74.158,14.138,14.138,0,0,1,42.277,88.27ZM69.935,51.563A5.063,5.063,0,1,1,64.872,46.5,5.051,5.051,0,0,1,69.935,51.563ZM84.313,56.7c-.321-6.782-1.87-12.79-6.839-17.74-4.95-4.95-10.958-6.5-17.74-6.839-6.99-.4-27.942-.4-34.932,0-6.763.321-12.771,1.87-17.74,6.82S.563,49.9.223,56.682c-.4,6.99-.4,27.942,0,34.932.321,6.782,1.87,12.79,6.839,17.74s10.958,6.5,17.74,6.839c6.99.4,27.942.4,34.932,0,6.782-.321,12.79-1.87,17.74-6.839,4.95-4.95,6.5-10.957,6.839-17.74C84.709,84.624,84.709,63.691,84.313,56.7ZM75.282,99.114a14.288,14.288,0,0,1-8.048,8.048c-5.573,2.21-18.8,1.7-24.957,1.7s-19.4.491-24.957-1.7a14.288,14.288,0,0,1-8.048-8.048c-2.21-5.573-1.7-18.8-1.7-24.957s-.491-19.4,1.7-24.957a14.288,14.288,0,0,1,8.048-8.048c5.573-2.21,18.8-1.7,24.957-1.7s19.4-.491,24.957,1.7A14.288,14.288,0,0,1,75.282,49.2c2.21,5.573,1.7,18.8,1.7,24.957S77.492,93.56,75.282,99.114Z" transform="translate(0.075 -31.825)" fill="#fff"/>
</svg>
