<svg xmlns="http://www.w3.org/2000/svg" width="84.685" height="68.779" viewBox="0 0 84.685 68.779">
  <path id="twitter" d="M75.98,65.223c.054.752.054,1.5.054,2.257,0,22.944-17.464,49.381-49.382,49.381A49.047,49.047,0,0,1,0,109.07a35.9,35.9,0,0,0,4.191.215,34.759,34.759,0,0,0,21.547-7.415A17.387,17.387,0,0,1,9.511,89.833a21.89,21.89,0,0,0,3.278.269,18.356,18.356,0,0,0,4.567-.591A17.358,17.358,0,0,1,3.439,72.477v-.215a17.48,17.48,0,0,0,7.845,2.2A17.382,17.382,0,0,1,5.911,51.252,49.335,49.335,0,0,0,41.7,69.414a19.593,19.593,0,0,1-.43-3.976A17.373,17.373,0,0,1,71.305,53.563a34.171,34.171,0,0,0,11.016-4.191,17.309,17.309,0,0,1-7.63,9.565,34.794,34.794,0,0,0,9.995-2.687A37.309,37.309,0,0,1,75.98,65.223Z" transform="translate(0 -48.082)" fill="#fff"/>
</svg>
